<?xml version="1.0" encoding="utf-8" standalone="no"?>
<!DOCTYPE svg PUBLIC "-//W3C//DTD SVG 1.1//EN"
  "http://www.w3.org/Graphics/SVG/1.1/DTD/svg11.dtd">
<svg xmlns:xlink="http://www.w3.org/1999/xlink" width="361.64pt" height="56.04pt" viewBox="0 0 361.64 56.04" xmlns="http://www.w3.org/2000/svg" version="1.1">
 <metadata>
  <rdf:RDF xmlns:dc="http://purl.org/dc/elements/1.1/" xmlns:cc="http://creativecommons.org/ns#" xmlns:rdf="http://www.w3.org/1999/02/22-rdf-syntax-ns#">
   <cc:Work>
    <dc:type rdf:resource="http://purl.org/dc/dcmitype/StillImage"/>
    <dc:date>2026-07-16T12:04:21.459661</dc:date>
    <dc:format>image/svg+xml</dc:format>
    <dc:creator>
     <cc:Agent>
      <dc:title>Matplotlib v3.9.4, https://matplotlib.org/</dc:title>
     </cc:Agent>
    </dc:creator>
   </cc:Work>
  </rdf:RDF>
 </metadata>
 <defs>
  <style type="text/css">*{stroke-linejoin: round; stroke-linecap: butt}</style>
 </defs>
 <g id="figure_1">
  <g id="patch_1">
   <path d="M 0 56.04 
L 361.64 56.04 
L 361.64 0 
L 0 0 
L 0 56.04 
z
" style="fill: none"/>
  </g>
  <g id="text_1">
   <!-- $Z(\omega)=R_s+\sum_e\dfrac{R_{ct,e}+Z_{W,e}}{1+(R_{ct,e}+Z_{W,e})\,i\omega C_{dl,e}}$ -->
   <g style="fill: #1b2740" transform="translate(4.32 31.72) scale(0.2 -0.2)">
    <defs>
     <path id="Cmmi10-5a" d="M 372 50 
Q 372 144 416 197 
L 3938 4147 
L 2994 4147 
Q 2525 4147 2217 4036 
Q 1909 3925 1707 3667 
Q 1506 3409 1369 2963 
Q 1356 2906 1306 2906 
L 1247 2906 
Q 1184 2906 1184 2988 
L 1588 4313 
Q 1600 4372 1650 4372 
L 4569 4372 
Q 4622 4372 4622 4319 
Q 4622 4225 4581 4184 
L 1075 244 
L 2047 244 
Q 2613 244 2936 383 
Q 3259 522 3448 822 
Q 3638 1122 3816 1678 
Q 3822 1700 3839 1717 
Q 3856 1734 3878 1734 
L 3938 1734 
Q 4000 1734 4000 1650 
L 3494 56 
Q 3466 0 3431 0 
L 428 0 
Q 372 0 372 50 
z
" transform="scale(0.015625)"/>
     <path id="Cmr10-28" d="M 1984 -1588 
Q 1628 -1306 1370 -942 
Q 1113 -578 948 -165 
Q 784 247 703 697 
Q 622 1147 622 1600 
Q 622 2059 703 2509 
Q 784 2959 951 3375 
Q 1119 3791 1378 4153 
Q 1638 4516 1984 4788 
Q 1984 4800 2016 4800 
L 2075 4800 
Q 2094 4800 2109 4783 
Q 2125 4766 2125 4744 
Q 2125 4716 2113 4703 
Q 1800 4397 1592 4047 
Q 1384 3697 1257 3301 
Q 1131 2906 1075 2482 
Q 1019 2059 1019 1600 
Q 1019 -434 2106 -1491 
Q 2125 -1509 2125 -1544 
Q 2125 -1559 2108 -1579 
Q 2091 -1600 2075 -1600 
L 2016 -1600 
Q 1984 -1600 1984 -1588 
z
" transform="scale(0.015625)"/>
     <path id="Cmmi10-21" d="M 775 -72 
Q 413 -72 252 193 
Q 91 459 91 844 
Q 91 1097 136 1339 
Q 181 1581 273 1829 
Q 366 2078 484 2295 
Q 603 2513 750 2719 
Q 778 2759 825 2759 
Q 866 2759 891 2734 
Q 916 2709 916 2675 
Q 916 2641 897 2613 
Q 313 1809 313 1131 
Q 313 838 448 627 
Q 584 416 863 416 
Q 1103 416 1308 556 
Q 1513 697 1663 916 
Q 1663 1028 1702 1265 
Q 1741 1503 1823 1689 
Q 1906 1875 2022 1875 
Q 2169 1875 2169 1703 
Q 2169 1603 2126 1451 
Q 2084 1300 2032 1169 
Q 1981 1038 1906 872 
Q 1981 416 2363 416 
Q 2584 416 2807 544 
Q 3031 672 3203 880 
Q 3375 1088 3473 1328 
Q 3572 1569 3572 1784 
Q 3572 1978 3511 2086 
Q 3450 2194 3350 2312 
Q 3250 2431 3250 2503 
Q 3250 2628 3356 2731 
Q 3463 2834 3584 2834 
Q 3741 2834 3806 2692 
Q 3872 2550 3872 2369 
Q 3872 2075 3755 1628 
Q 3638 1181 3488 884 
Q 3281 481 2970 204 
Q 2659 -72 2272 -72 
Q 2025 -72 1873 76 
Q 1722 225 1678 481 
Q 1500 228 1272 78 
Q 1044 -72 775 -72 
z
" transform="scale(0.015625)"/>
     <path id="Cmr10-29" d="M 416 -1600 
Q 359 -1600 359 -1544 
Q 359 -1516 372 -1503 
Q 1466 -434 1466 1600 
Q 1466 3634 384 4691 
Q 359 4706 359 4744 
Q 359 4766 376 4783 
Q 394 4800 416 4800 
L 475 4800 
Q 494 4800 506 4788 
Q 966 4425 1272 3906 
Q 1578 3388 1720 2800 
Q 1863 2213 1863 1600 
Q 1863 1147 1786 708 
Q 1709 269 1542 -157 
Q 1375 -584 1119 -945 
Q 863 -1306 506 -1588 
Q 494 -1600 475 -1600 
L 416 -1600 
z
" transform="scale(0.015625)"/>
     <path id="Cmr10-3d" d="M 481 850 
Q 428 850 393 890 
Q 359 931 359 978 
Q 359 1031 393 1068 
Q 428 1106 481 1106 
L 4500 1106 
Q 4547 1106 4581 1068 
Q 4616 1031 4616 978 
Q 4616 931 4581 890 
Q 4547 850 4500 850 
L 481 850 
z
M 481 2094 
Q 428 2094 393 2131 
Q 359 2169 359 2222 
Q 359 2269 393 2309 
Q 428 2350 481 2350 
L 4500 2350 
Q 4547 2350 4581 2309 
Q 4616 2269 4616 2222 
Q 4616 2169 4581 2131 
Q 4547 2094 4500 2094 
L 481 2094 
z
" transform="scale(0.015625)"/>
     <path id="Cmmi10-52" d="M 313 0 
Q 250 0 250 84 
Q 253 100 262 139 
Q 272 178 289 201 
Q 306 225 331 225 
Q 722 225 878 269 
Q 959 297 997 441 
L 1875 3956 
Q 1888 4019 1888 4044 
Q 1888 4113 1813 4122 
Q 1691 4147 1350 4147 
Q 1288 4147 1288 4231 
Q 1291 4247 1300 4286 
Q 1309 4325 1326 4348 
Q 1344 4372 1369 4372 
L 3309 4372 
Q 3541 4372 3791 4319 
Q 4041 4266 4250 4152 
Q 4459 4038 4593 3848 
Q 4728 3659 4728 3406 
Q 4728 3084 4515 2831 
Q 4303 2578 3978 2408 
Q 3653 2238 3347 2169 
Q 3597 2078 3756 1879 
Q 3916 1681 3916 1422 
Q 3916 1388 3914 1370 
Q 3913 1353 3909 1331 
L 3859 763 
Q 3853 638 3847 550 
Q 3841 463 3841 409 
Q 3841 234 3892 129 
Q 3944 25 4097 25 
Q 4297 25 4448 211 
Q 4600 397 4647 616 
Q 4675 672 4709 672 
L 4769 672 
Q 4831 672 4831 588 
Q 4784 403 4682 237 
Q 4581 72 4426 -34 
Q 4272 -141 4091 -141 
Q 3716 -141 3452 26 
Q 3188 194 3188 550 
Q 3188 684 3213 788 
L 3353 1356 
Q 3378 1434 3378 1538 
Q 3378 1803 3198 1954 
Q 3019 2106 2747 2106 
L 1959 2106 
L 1538 416 
Q 1522 363 1522 325 
Q 1522 259 1600 250 
Q 1722 225 2059 225 
Q 2125 225 2125 141 
Q 2103 50 2090 25 
Q 2078 0 2016 0 
L 313 0 
z
M 1997 2272 
L 2706 2272 
Q 3403 2272 3756 2625 
Q 3919 2788 4014 3039 
Q 4109 3291 4109 3541 
Q 4109 3778 3970 3912 
Q 3831 4047 3626 4097 
Q 3422 4147 3175 4147 
L 2747 4147 
Q 2572 4147 2515 4117 
Q 2459 4088 2413 3928 
L 1997 2272 
z
" transform="scale(0.015625)"/>
     <path id="Cmmi10-73" d="M 556 391 
Q 728 97 1247 97 
Q 1472 97 1675 173 
Q 1878 250 2011 403 
Q 2144 556 2144 775 
Q 2144 941 2025 1047 
Q 1906 1153 1734 1191 
L 1388 1259 
Q 1150 1319 997 1481 
Q 844 1644 844 1875 
Q 844 2159 998 2378 
Q 1153 2597 1406 2712 
Q 1659 2828 1931 2828 
Q 2222 2828 2451 2689 
Q 2681 2550 2681 2278 
Q 2681 2131 2598 2018 
Q 2516 1906 2369 1906 
Q 2284 1906 2223 1961 
Q 2163 2016 2163 2100 
Q 2163 2175 2205 2245 
Q 2247 2316 2317 2358 
Q 2388 2400 2463 2400 
Q 2406 2538 2251 2600 
Q 2097 2663 1919 2663 
Q 1756 2663 1593 2597 
Q 1431 2531 1332 2404 
Q 1234 2278 1234 2106 
Q 1234 1991 1315 1903 
Q 1397 1816 1516 1778 
L 1888 1703 
Q 2066 1666 2214 1570 
Q 2363 1475 2448 1329 
Q 2534 1184 2534 997 
Q 2534 759 2401 528 
Q 2269 297 2075 159 
Q 1734 -72 1241 -72 
Q 900 -72 615 84 
Q 331 241 331 550 
Q 331 725 432 854 
Q 534 984 709 984 
Q 813 984 883 921 
Q 953 859 953 756 
Q 953 609 843 500 
Q 734 391 588 391 
L 556 391 
z
" transform="scale(0.015625)"/>
     <path id="Cmr10-2b" d="M 481 1472 
Q 428 1472 393 1512 
Q 359 1553 359 1600 
Q 359 1647 393 1687 
Q 428 1728 481 1728 
L 2363 1728 
L 2363 3616 
Q 2363 3666 2400 3698 
Q 2438 3731 2491 3731 
Q 2538 3731 2578 3698 
Q 2619 3666 2619 3616 
L 2619 1728 
L 4500 1728 
Q 4547 1728 4581 1687 
Q 4616 1647 4616 1600 
Q 4616 1553 4581 1512 
Q 4547 1472 4500 1472 
L 2619 1472 
L 2619 -416 
Q 2619 -466 2578 -498 
Q 2538 -531 2491 -531 
Q 2438 -531 2400 -498 
Q 2363 -466 2363 -416 
L 2363 1472 
L 481 1472 
z
" transform="scale(0.015625)"/>
     <path id="Cmex10-58" d="M 422 -8959 
Q 359 -8959 359 -8891 
Q 359 -8863 378 -8844 
L 3756 -4909 
L 378 -281 
Q 359 -263 359 -250 
L 359 -56 
Q 359 -34 379 -17 
Q 400 0 422 0 
L 8103 0 
L 8878 -1797 
L 8691 -1797 
Q 8394 -1116 7697 -787 
Q 7000 -459 6242 -382 
Q 5484 -306 4481 -306 
L 1522 -306 
L 4544 -4434 
Q 4556 -4459 4556 -4481 
Q 4556 -4500 4544 -4525 
L 1222 -8391 
L 4544 -8391 
Q 5528 -8391 6289 -8314 
Q 7050 -8238 7739 -7908 
Q 8428 -7578 8691 -6900 
L 8878 -6900 
L 8103 -8959 
L 422 -8959 
z
" transform="scale(0.015625)"/>
     <path id="Cmmi10-65" d="M 1288 -72 
Q 981 -72 751 87 
Q 522 247 401 517 
Q 281 788 281 1088 
Q 281 1544 511 1945 
Q 741 2347 1134 2587 
Q 1528 2828 1978 2828 
Q 2253 2828 2458 2686 
Q 2663 2544 2663 2278 
Q 2663 1909 2369 1729 
Q 2075 1550 1706 1508 
Q 1338 1466 891 1466 
L 872 1466 
Q 769 1084 769 813 
Q 769 528 900 312 
Q 1031 97 1300 97 
Q 1681 97 2032 272 
Q 2384 447 2606 756 
Q 2625 775 2656 775 
Q 2688 775 2720 739 
Q 2753 703 2753 672 
Q 2753 647 2741 634 
Q 2506 306 2109 117 
Q 1713 -72 1288 -72 
z
M 909 1631 
Q 1281 1631 1597 1665 
Q 1913 1700 2169 1839 
Q 2425 1978 2425 2272 
Q 2425 2391 2359 2480 
Q 2294 2569 2189 2616 
Q 2084 2663 1972 2663 
Q 1700 2663 1483 2516 
Q 1266 2369 1125 2133 
Q 984 1897 909 1631 
z
" transform="scale(0.015625)"/>
     <path id="Cmmi10-63" d="M 750 763 
Q 750 484 892 290 
Q 1034 97 1300 97 
Q 1681 97 2032 272 
Q 2384 447 2606 756 
Q 2625 775 2656 775 
Q 2688 775 2720 739 
Q 2753 703 2753 672 
Q 2753 647 2741 634 
Q 2506 306 2109 117 
Q 1713 -72 1288 -72 
Q 981 -72 747 73 
Q 513 219 384 462 
Q 256 706 256 1013 
Q 256 1444 497 1869 
Q 738 2294 1138 2561 
Q 1538 2828 1978 2828 
Q 2266 2828 2495 2689 
Q 2725 2550 2725 2278 
Q 2725 2103 2623 1979 
Q 2522 1856 2350 1856 
Q 2247 1856 2176 1920 
Q 2106 1984 2106 2088 
Q 2106 2238 2215 2344 
Q 2325 2450 2472 2450 
L 2484 2450 
Q 2409 2559 2267 2611 
Q 2125 2663 1972 2663 
Q 1597 2663 1315 2342 
Q 1034 2022 892 1576 
Q 750 1131 750 763 
z
" transform="scale(0.015625)"/>
     <path id="Cmmi10-74" d="M 397 519 
Q 397 613 416 697 
L 878 2534 
L 206 2534 
Q 141 2534 141 2619 
Q 166 2759 225 2759 
L 934 2759 
L 1191 3803 
Q 1216 3888 1291 3947 
Q 1366 4006 1459 4006 
Q 1541 4006 1595 3957 
Q 1650 3909 1650 3828 
Q 1650 3809 1648 3798 
Q 1647 3788 1644 3775 
L 1388 2759 
L 2047 2759 
Q 2113 2759 2113 2675 
Q 2109 2659 2100 2621 
Q 2091 2584 2075 2559 
Q 2059 2534 2028 2534 
L 1331 2534 
L 872 684 
Q 825 503 825 372 
Q 825 97 1013 97 
Q 1294 97 1511 361 
Q 1728 625 1844 941 
Q 1869 978 1894 978 
L 1972 978 
Q 1997 978 2012 961 
Q 2028 944 2028 922 
Q 2028 909 2022 903 
Q 1881 516 1612 222 
Q 1344 -72 997 -72 
Q 744 -72 570 93 
Q 397 259 397 519 
z
" transform="scale(0.015625)"/>
     <path id="Cmmi10-3b" d="M 634 -1153 
Q 634 -1125 659 -1100 
Q 891 -878 1019 -587 
Q 1147 -297 1147 25 
L 1147 103 
Q 1044 0 891 0 
Q 744 0 641 103 
Q 538 206 538 353 
Q 538 503 641 603 
Q 744 703 891 703 
Q 1119 703 1216 492 
Q 1313 281 1313 25 
Q 1313 -331 1170 -651 
Q 1028 -972 769 -1228 
Q 744 -1241 728 -1241 
Q 697 -1241 665 -1212 
Q 634 -1184 634 -1153 
z
" transform="scale(0.015625)"/>
     <path id="Cmmi10-57" d="M 1141 -72 
L 844 4006 
Q 822 4100 703 4123 
Q 584 4147 409 4147 
Q 347 4147 347 4231 
Q 369 4313 381 4342 
Q 394 4372 453 4372 
L 1978 4372 
Q 2041 4372 2041 4288 
Q 2016 4147 1959 4147 
Q 1447 4147 1416 3969 
L 1644 738 
L 3244 3525 
L 3213 4006 
Q 3191 4100 3072 4123 
Q 2953 4147 2778 4147 
Q 2713 4147 2713 4231 
Q 2734 4313 2746 4342 
Q 2759 4372 2822 4372 
L 4347 4372 
Q 4409 4372 4409 4288 
Q 4406 4272 4397 4234 
Q 4388 4197 4372 4172 
Q 4356 4147 4325 4147 
Q 3809 4147 3781 3969 
L 3781 3922 
L 4013 738 
L 5753 3775 
Q 5791 3844 5791 3909 
Q 5791 4041 5662 4094 
Q 5534 4147 5375 4147 
Q 5313 4147 5313 4231 
Q 5325 4281 5333 4309 
Q 5341 4338 5361 4355 
Q 5381 4372 5422 4372 
L 6644 4372 
Q 6706 4372 6706 4288 
Q 6703 4272 6693 4233 
Q 6684 4194 6667 4170 
Q 6650 4147 6625 4147 
Q 6169 4147 5931 3731 
Q 5913 3713 5913 3713 
L 3744 -72 
Q 3709 -141 3634 -141 
L 3584 -141 
Q 3506 -141 3506 -72 
L 3263 3225 
L 1381 -72 
Q 1334 -141 1269 -141 
L 1216 -141 
Q 1141 -141 1141 -72 
z
" transform="scale(0.015625)"/>
     <path id="Cmr10-31" d="M 594 0 
L 594 225 
Q 1394 225 1394 428 
L 1394 3788 
Q 1063 3628 556 3628 
L 556 3853 
Q 1341 3853 1741 4263 
L 1831 4263 
Q 1853 4263 1873 4245 
Q 1894 4228 1894 4206 
L 1894 428 
Q 1894 225 2694 225 
L 2694 0 
L 594 0 
z
" transform="scale(0.015625)"/>
     <path id="Cmmi10-69" d="M 500 459 
Q 500 578 550 709 
L 1069 2088 
Q 1153 2322 1153 2472 
Q 1153 2663 1013 2663 
Q 759 2663 595 2402 
Q 431 2141 353 1819 
Q 341 1778 300 1778 
L 225 1778 
Q 172 1778 172 1838 
L 172 1856 
Q 275 2238 487 2533 
Q 700 2828 1025 2828 
Q 1253 2828 1411 2678 
Q 1569 2528 1569 2297 
Q 1569 2178 1516 2047 
L 997 672 
Q 909 459 909 288 
Q 909 97 1056 97 
Q 1306 97 1473 364 
Q 1641 631 1709 941 
Q 1722 978 1759 978 
L 1838 978 
Q 1863 978 1878 961 
Q 1894 944 1894 922 
Q 1894 916 1888 903 
Q 1800 541 1583 234 
Q 1366 -72 1044 -72 
Q 819 -72 659 83 
Q 500 238 500 459 
z
M 1222 3878 
Q 1222 4013 1334 4122 
Q 1447 4231 1581 4231 
Q 1691 4231 1761 4164 
Q 1831 4097 1831 3994 
Q 1831 3850 1717 3742 
Q 1603 3634 1466 3634 
Q 1363 3634 1292 3704 
Q 1222 3775 1222 3878 
z
" transform="scale(0.015625)"/>
     <path id="Cmmi10-43" d="M 934 1381 
Q 934 997 1082 705 
Q 1231 413 1514 248 
Q 1797 84 2181 84 
Q 2584 84 2957 290 
Q 3331 497 3595 842 
Q 3859 1188 3956 1575 
Q 3969 1613 4006 1613 
L 4084 1613 
Q 4109 1613 4125 1595 
Q 4141 1578 4141 1556 
Q 4141 1550 4134 1538 
Q 4025 1094 3711 705 
Q 3397 316 2959 87 
Q 2522 -141 2059 -141 
Q 1559 -141 1162 84 
Q 766 309 545 709 
Q 325 1109 325 1613 
Q 325 2150 565 2676 
Q 806 3203 1212 3614 
Q 1619 4025 2139 4269 
Q 2659 4513 3194 4513 
Q 3406 4513 3600 4448 
Q 3794 4384 3959 4253 
Q 4125 4122 4231 3950 
L 4738 4500 
Q 4738 4513 4769 4513 
L 4806 4513 
Q 4831 4513 4847 4491 
Q 4863 4469 4863 4447 
L 4428 2719 
Q 4428 2675 4378 2675 
L 4263 2675 
Q 4213 2675 4213 2747 
Q 4238 2888 4238 3084 
Q 4238 3397 4131 3673 
Q 4025 3950 3801 4119 
Q 3578 4288 3256 4288 
Q 2734 4288 2300 4025 
Q 1866 3763 1564 3336 
Q 1263 2909 1098 2389 
Q 934 1869 934 1381 
z
" transform="scale(0.015625)"/>
     <path id="Cmmi10-64" d="M 1113 -72 
Q 709 -72 476 233 
Q 244 538 244 953 
Q 244 1363 456 1803 
Q 669 2244 1030 2536 
Q 1391 2828 1806 2828 
Q 1994 2828 2145 2723 
Q 2297 2619 2381 2444 
L 2741 3872 
Q 2766 3981 2772 4044 
Q 2772 4147 2356 4147 
Q 2291 4147 2291 4231 
Q 2294 4247 2305 4287 
Q 2316 4328 2333 4350 
Q 2350 4372 2381 4372 
L 3244 4441 
Q 3322 4441 3322 4359 
L 2400 678 
Q 2356 572 2356 372 
Q 2356 97 2541 97 
Q 2741 97 2845 351 
Q 2950 606 3022 941 
Q 3034 978 3072 978 
L 3150 978 
Q 3175 978 3190 956 
Q 3206 934 3206 916 
Q 3094 469 2961 198 
Q 2828 -72 2528 -72 
Q 2313 -72 2147 54 
Q 1981 181 1941 391 
Q 1528 -72 1113 -72 
z
M 1119 97 
Q 1350 97 1567 270 
Q 1784 444 1941 678 
Q 1947 684 1947 703 
L 2297 2113 
Q 2259 2338 2131 2500 
Q 2003 2663 1791 2663 
Q 1575 2663 1389 2486 
Q 1203 2309 1075 2069 
Q 950 1813 836 1366 
Q 722 919 722 672 
Q 722 450 817 273 
Q 913 97 1119 97 
z
" transform="scale(0.015625)"/>
     <path id="Cmmi10-6c" d="M 281 519 
Q 281 538 286 575 
Q 291 613 295 648 
Q 300 684 300 703 
L 1094 3872 
Q 1119 3981 1125 4044 
Q 1125 4147 709 4147 
Q 647 4147 647 4231 
Q 650 4247 661 4287 
Q 672 4328 689 4350 
Q 706 4372 738 4372 
L 1600 4441 
Q 1678 4441 1678 4359 
L 756 678 
Q 709 575 709 372 
Q 709 97 897 97 
Q 1094 97 1192 342 
Q 1291 588 1369 941 
Q 1381 978 1422 978 
L 1497 978 
Q 1522 978 1539 958 
Q 1556 938 1556 916 
Q 1481 606 1420 426 
Q 1359 247 1225 87 
Q 1091 -72 884 -72 
Q 628 -72 454 93 
Q 281 259 281 519 
z
" transform="scale(0.015625)"/>
    </defs>
    <use xlink:href="#Cmmi10-5a" transform="translate(0 0.607812)"/>
    <use xlink:href="#Cmr10-28" transform="translate(68.212891 0.607812)"/>
    <use xlink:href="#Cmmi10-21" transform="translate(107.03125 0.607812)"/>
    <use xlink:href="#Cmr10-29" transform="translate(169.238281 0.607812)"/>
    <use xlink:href="#Cmr10-3d" transform="translate(225.615234 0.607812)"/>
    <use xlink:href="#Cmmi10-52" transform="translate(320.859375 0.607812)"/>
    <use xlink:href="#Cmmi10-73" transform="translate(396.738281 -16.398438) scale(0.7)"/>
    <use xlink:href="#Cmr10-2b" transform="translate(453.418359 0.607812)"/>
    <use xlink:href="#Cmex10-58" transform="translate(548.6625 103.933333)"/>
    <use xlink:href="#Cmmi10-65" transform="translate(601.6625 -85.732292) scale(0.7)"/>
    <use xlink:href="#Cmmi10-52" transform="translate(956.75625 68.6875)"/>
    <use xlink:href="#Cmmi10-63" transform="translate(1032.635156 51.68125) scale(0.7)"/>
    <use xlink:href="#Cmmi10-74" transform="translate(1062.88418 51.68125) scale(0.7)"/>
    <use xlink:href="#Cmmi10-3b" transform="translate(1088.142969 51.68125) scale(0.7)"/>
    <use xlink:href="#Cmmi10-65" transform="translate(1119.813867 51.68125) scale(0.7)"/>
    <use xlink:href="#Cmr10-2b" transform="translate(1176.288867 68.6875)"/>
    <use xlink:href="#Cmmi10-5a" transform="translate(1271.533008 68.6875)"/>
    <use xlink:href="#Cmmi10-57" transform="translate(1339.745898 51.68125) scale(0.7)"/>
    <use xlink:href="#Cmmi10-3b" transform="translate(1405.815234 51.68125) scale(0.7)"/>
    <use xlink:href="#Cmmi10-65" transform="translate(1437.486133 51.68125) scale(0.7)"/>
    <use xlink:href="#Cmr10-31" transform="translate(681.75625 -68.142188)"/>
    <use xlink:href="#Cmr10-2b" transform="translate(749.314844 -68.142188)"/>
    <use xlink:href="#Cmr10-28" transform="translate(844.558984 -68.142188)"/>
    <use xlink:href="#Cmmi10-52" transform="translate(883.377344 -68.142188)"/>
    <use xlink:href="#Cmmi10-63" transform="translate(959.25625 -85.148438) scale(0.7)"/>
    <use xlink:href="#Cmmi10-74" transform="translate(989.505273 -85.148438) scale(0.7)"/>
    <use xlink:href="#Cmmi10-3b" transform="translate(1014.764063 -85.148438) scale(0.7)"/>
    <use xlink:href="#Cmmi10-65" transform="translate(1046.434961 -85.148438) scale(0.7)"/>
    <use xlink:href="#Cmr10-2b" transform="translate(1102.909961 -68.142188)"/>
    <use xlink:href="#Cmmi10-5a" transform="translate(1198.154102 -68.142188)"/>
    <use xlink:href="#Cmmi10-57" transform="translate(1266.366992 -85.148438) scale(0.7)"/>
    <use xlink:href="#Cmmi10-3b" transform="translate(1332.436328 -85.148438) scale(0.7)"/>
    <use xlink:href="#Cmmi10-65" transform="translate(1364.107227 -85.148438) scale(0.7)"/>
    <use xlink:href="#Cmr10-29" transform="translate(1403.023633 -68.142188)"/>
    <use xlink:href="#Cmmi10-69" transform="translate(1456.474446 -68.142188)"/>
    <use xlink:href="#Cmmi10-21" transform="translate(1490.898274 -68.142188)"/>
    <use xlink:href="#Cmmi10-43" transform="translate(1553.105306 -68.142188)"/>
    <use xlink:href="#Cmmi10-64" transform="translate(1624.492024 -85.148438) scale(0.7)"/>
    <use xlink:href="#Cmmi10-6c" transform="translate(1660.893392 -85.148438) scale(0.7)"/>
    <use xlink:href="#Cmmi10-3b" transform="translate(1681.743001 -85.148438) scale(0.7)"/>
    <use xlink:href="#Cmmi10-65" transform="translate(1713.413899 -85.148438) scale(0.7)"/>
    <path d="M 681.75625 13.107812 
L 681.75625 19.357812 
L 1752.330306 19.357812 
L 1752.330306 13.107812 
L 681.75625 13.107812 
z
"/>
   </g>
  </g>
 </g>
</svg>
